<svg width="301.213232421875px" height="124.39999999999999px" xmlns="http://www.w3.org/2000/svg" viewBox="99.39338378906251 12.800000000000004 301.213232421875 124.39999999999999" style="background: rgba(0, 0, 0, 0);" preserveAspectRatio="xMidYMid"><defs><filter id="editing-metal-beveled"><feGaussianBlur stdDeviation="4" in="SourceAlpha" result="blur"></feGaussianBlur><feSpecularLighting surfaceScale="5" specularConstant="0.8" specularExponent="7.5" lighting-color="#fff" in="blur" result="specular"><fePointLight x="-250" y="-50" z="300"></fePointLight></feSpecularLighting><feComposite operator="in" in="specular" in2="SourceAlpha" result="comp"></feComposite><feComposite in="SourceGraphic" in2="comp" operator="arithmetic" k1="0" k2="1" k3="1" k4="0"></feComposite></filter></defs><g filter="url(#editing-metal-beveled)"><g transform="translate(144.17242550849915, 107.00000381469727)"><path d="M8.32 5.57L8.32 5.57Q4.74 5.57 2.98 4.35L2.98 4.35L2.98 4.35Q1.22 3.14 1.22 0.45L1.22 0.45L1.22 0.45Q1.22 0.26 1.54 0.26L1.54 0.26L1.54 0.26Q1.79 0.26 3.07 0.58L3.07 0.58L3.07 0.58Q4.35 0.90 7.55 0.90L7.55 0.90L7.55 0.90Q14.66 0.90 20.51-1.25L20.51-1.25L20.51-1.25Q26.37-3.39 29.70-6.91L29.70-6.91L29.70-6.91Q33.02-10.43 33.02-14.27L33.02-14.27L33.02-14.27Q33.02-18.94 28.42-20.64L28.42-20.64L28.42-20.64Q23.81-22.34 16.90-22.34L16.90-22.34L12.10-22.27L12.10-22.27Q11.14-19.01 9.34-12.48L9.34-12.48L9.34-12.48Q8-7.49 6.34-1.66L6.34-1.66L6.34-1.66Q4.74-1.66 3.65-2.56L3.65-2.56L3.65-2.56Q2.56-3.46 2.56-4.74L2.56-4.74L2.56-4.74Q2.56-5.57 2.94-6.78L2.94-6.78L2.94-6.78Q3.33-8 3.46-8.38L3.46-8.38L3.46-8.38Q5.44-15.04 9.44-26.14L9.44-26.14L9.44-26.14Q13.44-37.25 17.02-44.29L17.02-44.29L17.02-44.29Q13.25-43.65 9.60-41.47L9.60-41.47L9.60-41.47Q8.45-40.83 8.19-40.83L8.19-40.83L8.19-40.83Q7.68-40.83 6.91-41.47L6.91-41.47L6.91-41.47Q6.14-42.11 6.14-42.56L6.14-42.56L6.14-42.56Q10.37-44.29 13.60-45.18L13.60-45.18L13.60-45.18Q16.83-46.08 21.31-46.08L21.31-46.08L21.31-46.08Q27.20-46.08 31.65-43.94L31.65-43.94L31.65-43.94Q36.10-41.79 36.10-35.90L36.10-35.90L36.10-35.90Q36.10-30.21 31.84-27.33L31.84-27.33L31.84-27.33Q27.58-24.45 21.44-23.42L21.44-23.42L21.44-23.42Q36.03-22.53 36.03-13.12L36.03-13.12L36.03-13.12Q36.03-7.36 31.36-3.10L31.36-3.10L31.36-3.10Q26.69 1.15 20.13 3.36L20.13 3.36L20.13 3.36Q13.57 5.57 8.32 5.57L8.32 5.57ZM12.48-23.74L12.48-23.74Q20.74-24 26.50-27.01L26.50-27.01L26.50-27.01Q32.26-30.02 32.26-36.42L32.26-36.42L32.26-36.42Q32.26-44.74 21.44-44.74L21.44-44.74L21.44-44.74Q20.61-44.74 20.22-44.67L20.22-44.67L20.22-44.67Q16.45-37.31 12.48-23.74L12.48-23.74ZM43.71 1.92L43.71 1.92Q41.60 1.92 40.26 0.03L40.26 0.03L40.26 0.03Q38.91-1.86 38.91-4.54L38.91-4.54L38.91-4.54Q38.91-6.91 39.90-10.40L39.90-10.40L39.90-10.40Q40.90-13.89 42.27-16.48L42.27-16.48L42.27-16.48Q43.65-19.07 44.54-19.07L44.54-19.07L44.54-19.07Q44.93-19.07 45.66-18.69L45.66-18.69L45.66-18.69Q46.40-18.30 46.91-17.79L46.91-17.79L46.91-17.79Q45.57-15.68 44.10-11.74L44.10-11.74L44.10-11.74Q42.62-7.81 42.62-4.93L42.62-4.93L42.62-4.93Q42.62-3.46 43.10-2.05L43.10-2.05L43.10-2.05Q43.58-0.64 44.93-0.64L44.93-0.64L44.93-0.64Q47.17-0.64 49.82-4.77L49.82-4.77L49.82-4.77Q52.48-8.90 55.55-15.23L55.55-15.23L56.58-17.34L56.58-17.34Q59.65-16.77 59.65-15.68L59.65-15.68L59.65-15.68Q59.65-15.55 59.36-14.82L59.36-14.82L59.36-14.82Q59.07-14.08 58.82-13.50L58.82-13.50L58.82-13.50Q57.34-10.24 56.35-7.39L56.35-7.39L56.35-7.39Q55.36-4.54 55.36-2.56L55.36-2.56L55.36-2.56Q55.36 0 57.47 0L57.47 0L57.47 0Q58.88 0 60.80-1.25L60.80-1.25L60.80-1.25Q62.72-2.50 64.70-4.86L64.70-4.86L64.70-4.86Q66.69-7.23 68.16-10.37L68.16-10.37L68.99-9.79L68.99-9.79Q67.65-6.40 65.50-3.74L65.50-3.74L65.50-3.74Q63.36-1.09 60.86 0.42L60.86 0.42L60.86 0.42Q58.37 1.92 56.13 1.92L56.13 1.92L56.13 1.92Q51.65 1.92 51.65-2.82L51.65-2.82L51.65-2.82Q51.65-4.10 52.10-6.02L52.10-6.02L52.10-6.02Q50.05-2.37 48-0.22L48-0.22L48-0.22Q45.95 1.92 43.71 1.92L43.71 1.92ZM66.62 17.92L66.62 17.92Q62.40 17.92 62.40 14.66L62.40 14.66L62.40 14.66Q62.40 12.67 63.81 10.88L63.81 10.88L63.81 10.88Q65.22 9.09 67.33 7.58L67.33 7.58L67.33 7.58Q69.44 6.08 73.15 3.84L73.15 3.84L73.15 3.84Q75.84 2.30 78.08 0.77L78.08 0.77L78.08 0.77Q78.08-1.60 77.09-3.52L77.09-3.52L77.09-3.52Q76.10-5.44 73.66-7.36L73.66-7.36L73.66-7.36Q75.78-7.94 77.38-9.54L77.38-9.54L77.38-9.54Q78.98-11.14 79.81-13.09L79.81-13.09L79.81-13.09Q80.64-15.04 80.64-16.77L80.64-16.77L80.64-16.77Q80.64-18.24 80-19.20L80-19.20L80-19.20Q79.36-20.16 78.14-20.16L78.14-20.16L78.14-20.16Q76.16-20.16 74.53-18.69L74.53-18.69L74.53-18.69Q72.90-17.22 71.62-14.94L71.62-14.94L71.62-14.94Q70.34-12.67 68.42-8.58L68.42-8.58L67.65-9.22L67.65-9.22Q69.31-13.63 70.78-16.45L70.78-16.45L70.78-16.45Q72.26-19.26 74.27-20.93L74.27-20.93L74.27-20.93Q76.29-22.59 79.04-22.59L79.04-22.59L79.04-22.59Q81.28-22.59 82.82-21.15L82.82-21.15L82.82-21.15Q84.35-19.71 84.35-17.34L84.35-17.34L84.35-17.34Q84.35-14.08 82.18-11.39L82.18-11.39L82.18-11.39Q80-8.70 76.80-7.10L76.80-7.10L76.80-7.10Q80.13-4.54 81.28-1.34L81.28-1.34L81.28-1.34Q86.78-5.50 88.38-10.37L88.38-10.37L89.09-9.60L89.09-9.60Q87.49-4.54 81.66-0.13L81.66-0.13L81.66-0.13Q81.92 0.70 81.92 1.98L81.92 1.98L81.92 1.98Q81.92 5.76 79.71 9.50L79.71 9.50L79.71 9.50Q77.50 13.25 73.95 15.58L73.95 15.58L73.95 15.58Q70.40 17.92 66.62 17.92L66.62 17.92ZM66.18 16.06L66.18 16.06Q67.90 16.06 70.59 14.34L70.59 14.34L70.59 14.34Q73.28 12.61 75.46 9.47L75.46 9.47L75.46 9.47Q77.63 6.34 78.02 2.24L78.02 2.24L78.02 2.24Q75.20 4.03 73.79 4.80L73.79 4.80L73.79 4.80Q70.34 6.85 68.51 8.13L68.51 8.13L68.51 8.13Q66.69 9.41 65.44 10.88L65.44 10.88L65.44 10.88Q64.19 12.35 64.19 13.95L64.19 13.95L64.19 13.95Q64.19 15.04 64.74 15.55L64.74 15.55L64.74 15.55Q65.28 16.06 66.18 16.06L66.18 16.06ZM86.91 17.92L86.91 17.92Q82.69 17.92 82.69 14.66L82.69 14.66L82.69 14.66Q82.69 12.67 84.10 10.88L84.10 10.88L84.10 10.88Q85.50 9.09 87.62 7.58L87.62 7.58L87.62 7.58Q89.73 6.08 93.44 3.84L93.44 3.84L93.44 3.84Q96.13 2.30 98.37 0.77L98.37 0.77L98.37 0.77Q98.37-1.60 97.38-3.52L97.38-3.52L97.38-3.52Q96.38-5.44 93.95-7.36L93.95-7.36L93.95-7.36Q96.06-7.94 97.66-9.54L97.66-9.54L97.66-9.54Q99.26-11.14 100.10-13.09L100.10-13.09L100.10-13.09Q100.93-15.04 100.93-16.77L100.93-16.77L100.93-16.77Q100.93-18.24 100.29-19.20L100.29-19.20L100.29-19.20Q99.65-20.16 98.43-20.16L98.43-20.16L98.43-20.16Q96.45-20.16 94.82-18.69L94.82-18.69L94.82-18.69Q93.18-17.22 91.90-14.94L91.90-14.94L91.90-14.94Q90.62-12.67 88.70-8.58L88.70-8.58L87.94-9.22L87.94-9.22Q89.60-13.63 91.07-16.45L91.07-16.45L91.07-16.45Q92.54-19.26 94.56-20.93L94.56-20.93L94.56-20.93Q96.58-22.59 99.33-22.59L99.33-22.59L99.33-22.59Q101.57-22.59 103.10-21.15L103.10-21.15L103.10-21.15Q104.64-19.71 104.64-17.34L104.64-17.34L104.64-17.34Q104.64-14.08 102.46-11.39L102.46-11.39L102.46-11.39Q100.29-8.70 97.09-7.10L97.09-7.10L97.09-7.10Q100.42-4.54 101.57-1.34L101.57-1.34L101.57-1.34Q107.07-5.50 108.67-10.37L108.67-10.37L109.38-9.60L109.38-9.60Q107.78-4.54 101.95-0.13L101.95-0.13L101.95-0.13Q102.21 0.70 102.21 1.98L102.21 1.98L102.21 1.98Q102.21 5.76 100 9.50L100 9.50L100 9.50Q97.79 13.25 94.24 15.58L94.24 15.58L94.24 15.58Q90.69 17.92 86.91 17.92L86.91 17.92ZM86.46 16.06L86.46 16.06Q88.19 16.06 90.88 14.34L90.88 14.34L90.88 14.34Q93.57 12.61 95.74 9.47L95.74 9.47L95.74 9.47Q97.92 6.34 98.30 2.24L98.30 2.24L98.30 2.24Q95.49 4.03 94.08 4.80L94.08 4.80L94.08 4.80Q90.62 6.85 88.80 8.13L88.80 8.13L88.80 8.13Q86.98 9.41 85.73 10.88L85.73 10.88L85.73 10.88Q84.48 12.35 84.48 13.95L84.48 13.95L84.48 13.95Q84.48 15.04 85.02 15.55L85.02 15.55L85.02 15.55Q85.57 16.06 86.46 16.06L86.46 16.06ZM119.49 5.57L119.49 5.57Q116.74 5.57 115.58 4.38L115.58 4.38L115.58 4.38Q114.43 3.20 114.43 1.02L114.43 1.02L114.43 1.02Q114.43-0.64 115.04-2.85L115.04-2.85L115.04-2.85Q115.65-5.06 116.80-8.32L116.80-8.32L116.80-8.32Q119.49-16.06 123.14-25.60L123.14-25.60L123.14-25.60Q126.78-35.14 129.86-41.73L129.86-41.73L129.86-41.73Q122.94-41.60 119.49-41.38L119.49-41.38L119.49-41.38Q116.03-41.15 111.94-40.45L111.94-40.45L111.94-40.45Q112.19-43.46 116.29-44.77L116.29-44.77L116.29-44.77Q120.38-46.08 127.55-46.08L127.55-46.08L127.55-46.08Q132.74-46.08 139.90-45.31L139.90-45.31L139.90-45.31Q142.02-45.06 144.19-44.86L144.19-44.86L144.19-44.86Q146.37-44.67 148.16-44.67L148.16-44.67L148.16-44.67Q146.11-42.88 143.49-42.27L143.49-42.27L143.49-42.27Q140.86-41.66 137.22-41.66L137.22-41.66L132.67-41.73L132.67-41.73Q127.42-28.61 122.62-11.20L122.62-11.20L122.05-9.09L122.05-9.09Q120.58-3.71 120-1.06L120-1.06L120-1.06Q119.42 1.60 119.42 4.16L119.42 4.16L119.42 4.16Q119.42 5.12 119.49 5.57L119.49 5.57ZM141.95 3.01L141.95 3.01Q139.84 3.01 138.53 1.63L138.53 1.63L138.53 1.63Q137.22 0.26 137.22-2.30L137.22-2.30L137.22-2.30Q137.22-6.08 139.94-10.75L139.94-10.75L139.94-10.75Q142.66-15.42 146.82-18.69L146.82-18.69L146.82-18.69Q150.98-21.95 154.94-21.95L154.94-21.95L154.94-21.95Q157.44-21.95 159.10-20.61L159.10-20.61L159.10-20.61Q160.77-19.26 160.77-17.15L160.77-17.15L160.77-17.15Q160.77-15.68 159.94-15.04L159.94-15.04L159.94-15.04Q159.10-14.40 157.63-14.40L157.63-14.40L157.63-14.40Q157.95-15.55 157.95-16.64L157.95-16.64L157.95-16.64Q157.95-18.24 157.18-19.23L157.18-19.23L157.18-19.23Q156.42-20.22 154.82-20.22L154.82-20.22L154.82-20.22Q152-20.22 148.90-17.09L148.90-17.09L148.90-17.09Q145.79-13.95 143.71-9.60L143.71-9.60L143.71-9.60Q141.63-5.25 141.63-2.11L141.63-2.11L141.63-2.11Q141.63 0.38 143.36 0.38L143.36 0.38L143.36 0.38Q145.92 0.38 149.38-3.68L149.38-3.68L149.38-3.68Q152.83-7.74 156.80-13.57L156.80-13.57L156.80-13.57Q157.63-13.44 158.50-13.02L158.50-13.02L158.50-13.02Q159.36-12.61 159.36-11.97L159.36-11.97L159.36-11.97Q159.36-11.46 158.75-10.34L158.75-10.34L158.75-10.34Q158.14-9.22 158.02-9.02L158.02-9.02L158.02-9.02Q156.93-7.17 156.29-5.73L156.29-5.73L156.29-5.73Q155.65-4.29 155.65-3.07L155.65-3.07L155.65-3.07Q155.65-1.98 156.19-1.12L156.19-1.12L156.19-1.12Q156.74-0.26 157.82-0.26L157.82-0.26L157.82-0.26Q159.68-0.26 162.50-2.91L162.50-2.91L162.50-2.91Q165.31-5.57 168.06-10.37L168.06-10.37L168.70-9.73L168.70-9.73Q167.36-6.34 165.25-3.68L165.25-3.68L165.25-3.68Q163.14-1.02 160.70 0.45L160.70 0.45L160.70 0.45Q158.27 1.92 156.03 1.92L156.03 1.92L156.03 1.92Q153.79 1.92 152.61 0.61L152.61 0.61L152.61 0.61Q151.42-0.70 151.42-2.56L151.42-2.56L151.42-2.56Q151.42-3.39 151.62-4.42L151.62-4.42L151.62-4.42Q148.74-0.58 146.46 1.22L146.46 1.22L146.46 1.22Q144.19 3.01 141.95 3.01L141.95 3.01ZM172.10 1.92L172.10 1.92Q169.47 1.92 168.22 0.13L168.22 0.13L168.22 0.13Q166.98-1.66 166.98-4.67L166.98-4.67L166.98-4.67Q166.98-10.43 170.94-20.32L170.94-20.32L170.94-20.32Q174.91-30.21 179.81-38.14L179.81-38.14L179.81-38.14Q184.70-46.08 186.88-46.08L186.88-46.08L186.88-46.08Q187.78-46.08 188.38-44.51L188.38-44.51L188.38-44.51Q188.99-42.94 188.99-41.34L188.99-41.34L188.99-41.34Q188.99-38.40 186.59-32.67L186.59-32.67L186.59-32.67Q184.19-26.94 180.29-21.06L180.29-21.06L180.29-21.06Q176.38-15.17 171.97-11.52L171.97-11.52L171.97-11.52Q171.14-7.81 171.14-5.06L171.14-5.06L171.14-5.06Q171.14-0.13 173.95-0.13L173.95-0.13L173.95-0.13Q176.32-0.13 178.78-3.14L178.78-3.14L178.78-3.14Q181.25-6.14 183.17-10.37L183.17-10.37L184.13-9.86L184.13-9.86Q178.62 1.92 172.10 1.92L172.10 1.92ZM172.54-13.70L172.54-13.70Q176.06-17.22 179.42-22.56L179.42-22.56L179.42-22.56Q182.78-27.90 184.90-32.80L184.90-32.80L184.90-32.80Q187.01-37.70 187.01-39.87L187.01-39.87L187.01-39.87Q187.01-40.90 186.56-40.90L186.56-40.90L186.56-40.90Q185.66-40.90 182.88-36.51L182.88-36.51L182.88-36.51Q180.10-32.13 177.15-25.79L177.15-25.79L177.15-25.79Q174.21-19.46 172.54-13.70L172.54-13.70ZM200.90 2.43L200.90 2.43Q198.66 2.43 197.18 0.51L197.18 0.51L197.18 0.51Q195.71-1.41 195.04-4.10L195.04-4.10L195.04-4.10Q194.37-6.78 194.37-9.09L194.37-9.09L194.37-9.09Q195.58-9.09 197.54-9.79L197.54-9.79L197.54-9.79Q199.49-10.50 201.02-11.87L201.02-11.87L201.02-11.87Q202.56-13.25 202.56-15.23L202.56-15.23L202.56-15.23Q202.56-16.51 201.60-17.31L201.60-17.31L201.60-17.31Q200.64-18.11 199.36-18.11L199.36-18.11L199.36-18.11Q195.26-18.11 192.35-12.86L192.35-12.86L192.35-12.86Q189.44-7.62 187.26-1.02L187.26-1.02L186.56 0.83L186.56 0.83Q186.24 1.41 185.63 1.70L185.63 1.70L185.63 1.70Q185.02 1.98 184.38 1.98L184.38 1.98L184.38 1.98Q182.91 1.98 182.53 0.45L182.53 0.45L182.53 0.45Q182.14-1.09 182.14-4.03L182.14-4.03L182.14-4.03Q182.14-10.30 185.95-20.22L185.95-20.22L185.95-20.22Q189.76-30.14 194.53-37.92L194.53-37.92L194.53-37.92Q199.30-45.70 201.54-45.70L201.54-45.70L201.54-45.70Q202.37-45.70 202.94-44.48L202.94-44.48L202.94-44.48Q203.52-43.26 203.52-41.54L203.52-41.54L203.52-41.54Q203.52-38.59 201.82-34.82L201.82-34.82L201.82-34.82Q200.13-31.04 197.12-27.52L197.12-27.52L197.12-27.52Q194.11-24 190.46-21.82L190.46-21.82L190.46-21.82Q188.42-16.83 187.33-11.90L187.33-11.90L187.33-11.90Q186.24-6.98 186.24-3.52L186.24-3.52L186.24-3.52Q189.06-10.62 192.70-16.03L192.70-16.03L192.70-16.03Q196.35-21.44 200.58-21.44L200.58-21.44L200.58-21.44Q202.94-21.44 204.61-19.78L204.61-19.78L204.61-19.78Q206.27-18.11 206.27-15.74L206.27-15.74L206.27-15.74Q206.27-13.25 204.64-11.55L204.64-11.55L204.64-11.55Q203.01-9.86 200.86-9.06L200.86-9.06L200.86-9.06Q198.72-8.26 197.18-8.26L197.18-8.26L197.18-8.26Q197.50-5.89 198.75-2.94L198.75-2.94L198.75-2.94Q200 0 202.18 0L202.18 0L202.18 0Q206.98 0 211.65-10.43L211.65-10.43L212.29-9.79L212.29-9.79Q211.39-6.66 209.54-3.84L209.54-3.84L209.54-3.84Q207.68-1.02 205.38 0.70L205.38 0.70L205.38 0.70Q203.07 2.43 200.90 2.43L200.90 2.43ZM191.55-24.38L191.55-24.38Q194.37-26.62 196.61-29.63L196.61-29.63L196.61-29.63Q198.85-32.64 200.10-35.46L200.10-35.46L200.10-35.46Q201.34-38.27 201.34-39.94L201.34-39.94L201.34-39.94Q201.34-40.51 201.15-40.51L201.15-40.51L201.15-40.51Q200.19-40.51 197.25-35.62L197.25-35.62L197.25-35.62Q194.30-30.72 191.55-24.38L191.55-24.38Z" fill="#444"></path></g></g><style>text {
  font-size: 64px;
  font-family: Arial Black;
  dominant-baseline: central;
  text-anchor: middle;
}</style></svg>